<?xml version="1.0" encoding="UTF-8" standalone="no"?>
<svg
   xmlns:dc="http://purl.org/dc/elements/1.1/"
   xmlns:cc="http://creativecommons.org/ns#"
   xmlns:rdf="http://www.w3.org/1999/02/22-rdf-syntax-ns#"
   xmlns:svg="http://www.w3.org/2000/svg"
   xmlns="http://www.w3.org/2000/svg"
   xmlns:sodipodi="http://sodipodi.sourceforge.net/DTD/sodipodi-0.dtd"
   xmlns:inkscape="http://www.inkscape.org/namespaces/inkscape"
   viewBox="0 0 28.067136 29.109151"
   version="1.1"
   id="svg19"
   sodipodi:docname="magnifying-glass-solid-2.svg"
   inkscape:export-filename="magnifying-glass-solid.svg"
   inkscape:export-xdpi="96"
   inkscape:export-ydpi="96"
   width="28.067131"
   height="29.10915"
   inkscape:version="1.0.2-2 (e86c870879, 2021-01-15)">
  <metadata
     id="metadata32">
    <rdf:RDF>
      <cc:Work
         rdf:about="">
        <dc:format>image/svg+xml</dc:format>
        <dc:type
           rdf:resource="http://purl.org/dc/dcmitype/StillImage" />
        <dc:title></dc:title>
      </cc:Work>
    </rdf:RDF>
  </metadata>
  <defs
     id="defs23">
    <filter
       inkscape:collect="always"
       style="color-interpolation-filters:sRGB"
       id="filter3188"
       x="-0.81787032"
       y="-0.79618114"
       width="2.6357405"
       height="2.5923622">
      <feGaussianBlur
         inkscape:collect="always"
         stdDeviation="12.68203"
         id="feGaussianBlur3190" />
    </filter>
  </defs>
  <sodipodi:namedview
     id="namedview21"
     pagecolor="#ffffff"
     bordercolor="#000000"
     borderopacity="0.25"
     inkscape:showpageshadow="2"
     inkscape:pageopacity="0.0"
     inkscape:pagecheckerboard="0"
     inkscape:deskcolor="#d1d1d1"
     showgrid="false"
     inkscape:pageshadow="0"
     inkscape:zoom="9.1480845"
     inkscape:cx="34.907262"
     inkscape:cy="28.067821"
     inkscape:window-width="1618"
     inkscape:window-height="1027"
     inkscape:window-x="-8"
     inkscape:window-y="-8"
     inkscape:window-maximized="1"
     inkscape:current-layer="svg19"
     width="47px"
     units="px"
     inkscape:document-rotation="0" />
  <!--! Font Awesome Pro 6.2.1 by @fontawesome - https://fontawesome.com License - https://fontawesome.com/license (Commercial License) Copyright 2022 Fonticons, Inc. -->
  <path
     d="m 413.07756,205.76691 c 0,45.9 -14.9,88.3 -40,122.7 l 126.6,126.7 c 12.5,12.5 12.5,32.8 0,45.3 -12.5,12.5 -32.8,12.5 -45.3,0 l -126.6,-126.7 c -34.4,25.2 -76.8,40 -122.7,40 -114.899996,0 -207.9999961,-93.1 -207.9999961,-208 0,-114.9 93.1000001,-208.0000005 207.9999961,-208.0000005 114.9,0 208,93.1000005 208,208.0000005 z m -208,144 c 79.5,0 144,-64.5 144,-144 0,-79.5 -64.5,-144 -144,-144 -79.5,0 -143.999996,64.5 -143.999996,144 0,79.5 64.499996,144 143.999996,144 z"
     id="path17"
     style="display:none" />
  <path
     style="display:none;fill:#666666;stroke-width:0.0442386;filter:url(#filter3188)"
     d="m 37.792009,42.312525 c -0.126614,-0.03148 -0.362377,-0.124253 -0.523918,-0.20616 -0.270965,-0.137389 -0.66236,-0.526703 -5.053605,-5.026753 l -4.759894,-4.877835 -0.348305,0.249774 c -1.667772,1.195969 -3.724954,2.07754 -5.783956,2.478624 -0.974118,0.189754 -1.635619,0.248607 -2.794229,0.248607 -1.158609,0 -1.82011,-0.05885 -2.794229,-0.248607 C 10.328194,33.877179 5.9106379,29.912424 4.1709722,24.552479 3.3302392,21.962165 3.1800006,18.989322 3.7556288,16.333896 4.5725829,12.565208 6.7065971,9.2605082 9.7735642,7.0146203 14.521215,3.5379956 20.878776,3.1918739 25.928311,6.1351169 c 4.36415,2.5437491 7.204791,7.0478931 7.661837,12.1486781 0.05801,0.647467 0.05643,2.085402 -0.0031,2.771454 -0.220533,2.54344 -1.057817,4.992124 -2.452242,7.171711 l -0.396339,0.619506 4.674671,4.804353 c 3.406683,3.501189 4.72333,4.882508 4.854054,5.092485 0.595647,0.95675 0.435724,2.223056 -0.378747,2.99898 -0.554024,0.527804 -1.372154,0.750333 -2.096483,0.570241 z M 20.078026,30.344391 c 3.156167,-0.512512 5.884627,-2.401165 7.492728,-5.186503 1.288353,-2.231513 1.744616,-4.885813 1.281952,-7.457724 -0.847426,-4.710769 -4.64004,-8.2869991 -9.296037,-8.7656592 -0.65144,-0.066972 -2.015866,-0.030451 -2.64398,0.070768 -3.658157,0.5895069 -6.762596,3.1253562 -8.1400696,6.6491852 -1.351583,3.457593 -0.8553831,7.4377 1.2999356,10.427003 0.475088,0.658919 1.219589,1.456209 1.841083,1.971621 1.555214,1.289759 3.535109,2.133557 5.522968,2.353796 0.536428,0.05943 2.121542,0.02193 2.64142,-0.06249 z"
     id="path570" />
  <path
     style="display:inline;opacity:1;fill:#cccccc;fill-opacity:1;stroke-width:0.0324593"
     d="m 25.660692,29.064751 c -0.0945,-0.02271 -0.270465,-0.08963 -0.391032,-0.148705 -0.202239,-0.0991 -0.494361,-0.379918 -3.771825,-3.625874 l -3.552609,-3.518454 -0.259961,0.180165 c -1.244763,0.862671 -2.780168,1.49856 -4.316929,1.787868 -0.727047,0.136874 -1.220766,0.179324 -2.085509,0.179324 -0.864744,0 -1.3584636,-0.04245 -2.0855094,-0.179324 C 5.1627165,22.98021 1.8656169,20.120373 0.56719461,16.254163 -0.06029744,14.385731 -0.1724289,12.241375 0.25719803,10.325977 0.86694169,7.607562 2.4596911,5.2238334 4.7487617,3.6038407 8.292234,1.0960989 13.037282,0.84643602 16.806067,2.969442 c 3.257241,1.8348444 5.377388,5.0837524 5.718511,8.763025 0.0433,0.467028 0.04213,1.504233 -0.0023,1.999092 -0.164598,1.834621 -0.789516,3.600894 -1.830263,5.173063 l -0.295814,0.446859 3.489003,3.465451 c 2.542621,2.525462 3.525318,3.521827 3.622883,3.673288 0.444572,0.690118 0.325211,1.603523 -0.282681,2.163209 -0.413501,0.380713 -1.024124,0.541225 -1.564737,0.411322 z m -13.22106,-8.632793 c 2.355648,-0.369684 4.392067,-1.731998 5.592295,-3.741104 0.96158,-1.609623 1.302116,-3.52421 0.956801,-5.379368 C 18.356242,7.913536 15.525574,5.3339479 12.050511,4.9886817 11.5643,4.9403767 10.545942,4.9667156 10.077142,5.0397299 7.3468301,5.4649497 5.0297886,7.2940971 4.0016943,9.8358886 2.992923,12.329901 3.3632681,15.200813 4.9719179,17.357044 c 0.3545879,0.475286 0.9102574,1.050384 1.3741199,1.422158 1.1607524,0.930323 2.6384718,1.538967 4.1221362,1.697828 0.40037,0.04287 1.583441,0.01581 1.971458,-0.04507 z"
     id="path267" />
  <path
     style="display:inline;fill:#3d00cc;fill-opacity:1;stroke-width:0.0324593"
     d="m 25.952067,27.530451 c -0.0945,-0.02271 -0.270465,-0.08963 -0.391032,-0.148706 -0.202238,-0.0991 -0.494361,-0.379918 -3.771825,-3.625875 l -3.552608,-3.518454 -0.259962,0.180166 c -1.244763,0.86267 -2.780167,1.49856 -4.316929,1.787868 -0.727047,0.136873 -1.220766,0.179324 -2.085508,0.179324 -0.864744,0 -1.358464,-0.04245 -2.0855093,-0.179324 C 5.4540931,21.445909 2.156994,18.586071 0.85857173,14.719863 0.2310797,12.85143 0.11894825,10.707073 0.54857518,8.7916762 1.1583188,6.0732616 2.7510682,3.6895332 5.0401388,2.0695404 8.5836095,-0.43820159 13.328658,-0.6878645 17.097442,1.4351414 c 3.257241,1.8348446 5.377389,5.0837519 5.718512,8.7630246 0.04329,0.467027 0.04212,1.504232 -0.0023,1.999091 -0.164598,1.834622 -0.789516,3.600895 -1.830263,5.173064 l -0.295813,0.44686 3.489002,3.46545 c 2.542621,2.525462 3.525318,3.521828 3.622884,3.673288 0.444571,0.690118 0.325211,1.603524 -0.282681,2.163209 -0.413501,0.380712 -1.024124,0.541226 -1.564737,0.411323 z m -13.22106,-8.632794 c 2.355648,-0.369684 4.392068,-1.731997 5.592295,-3.741105 0.96158,-1.609623 1.302117,-3.524209 0.956802,-5.3793675 C 18.647618,6.3792349 15.816949,3.7996473 12.341887,3.4543813 11.855676,3.4060766 10.837317,3.4324154 10.368518,3.5054293 7.6382057,3.9306492 5.3211652,5.7597961 4.2930715,8.3015877 3.2843002,10.795601 3.6546454,13.666513 5.263294,15.822743 c 0.3545881,0.475286 0.9102569,1.050383 1.3741193,1.422157 1.1607525,0.930325 2.6384724,1.538968 4.1221367,1.69783 0.40037,0.04287 1.58344,0.01581 1.971457,-0.04508 z"
     id="path267-3" />
  <path
     style="display:none;opacity:0;fill:#3d00cc;fill-opacity:1;stroke-width:0.0451701"
     d="m 38.901333,41.463294 c -0.129138,-0.03218 -0.369601,-0.127009 -0.534363,-0.210733 -0.276367,-0.140436 -0.675564,-0.538384 -5.154349,-5.13824 l -4.854783,-4.98602 -0.355249,0.255314 c -1.701019,1.222494 -3.799211,2.123617 -5.89926,2.533597 -0.993537,0.193962 -1.668225,0.254121 -2.849932,0.254121 -1.181706,0 -1.856394,-0.06016 -2.849933,-0.254121 C 10.890022,32.840862 6.3844009,28.788173 4.6100547,23.309351 3.7525616,20.661586 3.5993279,17.622809 4.1864314,14.908489 5.0196716,11.056216 7.1962277,7.6782217 10.324336,5.3825226 15.166632,1.8287903 21.650932,1.474992 26.80113,4.4835128 c 4.45115,2.6001665 7.34842,7.2042072 7.814577,12.4181212 0.05917,0.661827 0.05756,2.131654 -0.0032,2.832922 -0.224929,2.599851 -1.078905,5.102844 -2.501128,7.330771 l -0.40424,0.633246 4.767861,4.910908 c 3.474596,3.578842 4.817491,4.990797 4.950821,5.205431 0.607521,0.977969 0.44441,2.27236 -0.386298,3.065494 -0.565068,0.53951 -1.399508,0.766974 -2.138276,0.582888 z M 20.834219,29.22972 c 3.219085,-0.523878 6.001938,-2.45442 7.642096,-5.301533 1.314037,-2.281006 1.779396,-4.994175 1.307508,-7.623128 -0.864319,-4.815248 -4.73254,-8.4707949 -9.481355,-8.9600711 -0.664426,-0.068457 -2.056052,-0.031126 -2.696688,0.072337 -3.731083,0.6025815 -6.897409,3.1946731 -8.3023437,6.7966571 -1.3785269,3.534277 -0.8724352,7.602658 1.3258507,10.658261 0.484559,0.673533 1.243902,1.488507 1.877785,2.01535 1.586218,1.318363 3.605582,2.180876 5.63307,2.405999 0.547121,0.06075 2.163835,0.02242 2.694077,-0.06388 z"
     id="path3958" />
</svg>
