<?xml version="1.0" encoding="UTF-8" standalone="no"?>
<svg
   width="25"
   height="25"
   fill="currentColor"
   class="bi bi-mic-mute"
   viewBox="0 0 25 25"
   version="1.1"
   id="svg23"
   sodipodi:docname="mic-mute.svg"
   inkscape:version="1.1 (c68e22c387, 2021-05-23)"
   xmlns:inkscape="http://www.inkscape.org/namespaces/inkscape"
   xmlns:sodipodi="http://sodipodi.sourceforge.net/DTD/sodipodi-0.dtd"
   xmlns="http://www.w3.org/2000/svg"
   xmlns:svg="http://www.w3.org/2000/svg">
  <defs
     id="defs27" />
  <sodipodi:namedview
     id="namedview25"
     pagecolor="#505050"
     bordercolor="#eeeeee"
     borderopacity="1"
     inkscape:pageshadow="0"
     inkscape:pageopacity="0"
     inkscape:pagecheckerboard="0"
     showgrid="false"
     inkscape:zoom="24.1875"
     inkscape:cx="9.6744186"
     inkscape:cy="13.912145"
     inkscape:window-width="1618"
     inkscape:window-height="1027"
     inkscape:window-x="-8"
     inkscape:window-y="-8"
     inkscape:window-maximized="1"
     inkscape:current-layer="svg23" />
  <path
     style="fill:#cccccc;stroke-width:0.02816"
     d="M 11.577811,16.254799 C 10.649596,16.114814 9.853971,15.734619 9.2011934,15.119113 8.6209362,14.571987 8.2393418,13.909054 8.0543718,13.126772 8.014046,12.956226 8.0045078,12.686934 7.9948959,11.447636 l -0.011445,-1.4760144 0.6861682,0.6332494 0.6861683,0.633249 0.013753,0.761516 c 0.012776,0.707319 0.019068,0.780058 0.088406,1.022024 0.1412719,0.492987 0.3718132,0.866658 0.7511926,1.217565 0.743229,0.687454 1.796812,0.936922 2.810256,0.665415 l 0.233036,-0.06243 0.520511,0.482008 0.520512,0.482007 -0.247633,0.107221 c -0.312647,0.135376 -0.642509,0.238338 -0.979638,0.30578 -0.355118,0.07103 -1.130337,0.08957 -1.488368,0.03557 z"
     id="path183" />
  <path
     style="fill:#cccccc;stroke-width:0.02816"
     d="M 11.719188,11.528791 3.2281604,3.6749485 3.7185911,3.2213229 4.2090219,2.7676972 l 8.4913651,7.8541188 8.491366,7.854119 -0.490768,0.453349 -0.490769,0.453349 z"
     id="path222" />
  <path
     style="fill:#cccccc;stroke-width:0.02816"
     d="m 15.752638,11.549251 -0.680764,-0.630153 -8.8e-5,-2.5861984 C 15.071736,6.6208848 15.060879,5.6643109 15.039548,5.502956 14.888154,4.3554862 13.935635,3.4256717 12.708827,3.2277894 11.476791,3.029064 10.233557,3.6066628 9.6761772,4.6367396 9.5450403,4.8790898 9.4264803,5.234826 9.3986233,5.4695344 L 9.3768746,5.6527752 8.7951342,5.1140097 8.2133939,4.5752442 8.2498558,4.4703606 C 8.3643729,4.1409492 8.6743728,3.6536445 8.9984387,3.2936248 9.54313,2.6885025 10.398503,2.205948 11.250495,2.0231389 c 0.984054,-0.2111453 2.019317,-0.090738 2.907901,0.3382061 1.141048,0.5508164 1.905736,1.4882317 2.220304,2.7218272 0.04758,0.1865673 0.05258,0.447015 0.06142,3.1957735 0.0052,1.6459593 0.0059,3.1969093 0.0014,3.4465543 l -0.0082,0.453903 z"
     id="path261" />
  <path
     style="fill:#cccccc;stroke-width:0.02816"
     d="m 6.9747014,22.785407 c -0.2529215,-0.108938 -0.398269,-0.317815 -0.398269,-0.572346 0,-0.252699 0.1553765,-0.480239 0.3994656,-0.584993 0.1107974,-0.04754 0.2368727,-0.0503 2.3350961,-0.05086 l 2.2179749,-5.94e-4 v -1.340085 -1.340084 l -0.06588,-0.01258 c -0.03623,-0.0069 -0.13176,-0.02014 -0.21228,-0.02938 -0.488745,-0.05608 -1.14789,-0.218343 -1.6627851,-0.409333 -2.1674343,-0.803964 -3.8006153,-2.595539 -4.2817583,-4.697026 -0.1176273,-0.51376 -0.1374255,-0.73926 -0.1520412,-1.73175 -0.015983,-1.085323 -0.00977,-1.14176 0.1464494,-1.331212 0.3156831,-0.382827 0.9179808,-0.31808 1.1723245,0.126022 0.059146,0.103277 0.062914,0.15827 0.080703,1.178103 0.019371,1.110494 0.031646,1.234043 0.1725699,1.736906 0.5087331,1.815325 2.1115845,3.284075 4.0853338,3.743535 0.843409,0.196335 1.836158,0.207478 2.689021,0.03019 0.511535,-0.106344 1.203269,-0.366058 1.66311,-0.624433 l 0.177997,-0.100015 0.498045,0.46067 0.498045,0.460668 -0.274293,0.166953 c -0.33199,0.202072 -1.047726,0.533078 -1.438447,0.665242 -0.374206,0.126571 -0.865773,0.24251 -1.266101,0.298609 -0.177146,0.02483 -0.351729,0.05047 -0.387963,0.05699 l -0.06588,0.01179 v 1.340084 1.340084 l 2.217976,5.96e-4 c 2.098223,5.63e-4 2.224299,0.0033 2.335095,0.05086 0.24409,0.104758 0.399466,0.332293 0.399466,0.584994 0,0.254531 -0.145347,0.463408 -0.398269,0.572344 l -0.147597,0.06357 H 12.217054 7.1222991 l -0.1475977,-0.06357 z"
     id="path300" />
  <path
     style="fill:#cccccc;stroke-width:0.02816"
     d="m 18.338934,13.941402 -0.553427,-0.512426 0.03773,-0.184956 c 0.02418,-0.118488 0.04457,-0.569375 0.05678,-1.254727 0.01816,-1.019726 0.02196,-1.074856 0.08116,-1.178459 0.193267,-0.338197 0.59523,-0.47005 0.937016,-0.30736 0.164697,0.0784 0.316187,0.249594 0.363165,0.410415 0.05035,0.172365 0.01735,2.006911 -0.04259,2.367802 -0.07004,0.42167 -0.26798,1.172139 -0.309157,1.172139 -0.0095,0 -0.266284,-0.230592 -0.570669,-0.512428 z"
     id="path339" />
  <g
     style="fill:currentColor"
     id="g857"
     transform="translate(-3.7829457,-19.989664)">
    <path
       d="m 5,3 a 3,3 0 0 1 6,0 V 8 A 3,3 0 0 1 5,8 Z"
       id="path845" />
    <path
       d="M 3.5,6.5 A 0.5,0.5 0 0 1 4,7 v 1 a 4,4 0 0 0 8,0 V 7 a 0.5,0.5 0 0 1 1,0 V 8 A 5,5 0 0 1 8.5,12.975 V 15 h 3 a 0.5,0.5 0 0 1 0,1 h -7 a 0.5,0.5 0 0 1 0,-1 h 3 V 12.975 A 5,5 0 0 1 3,8 V 7 A 0.5,0.5 0 0 1 3.5,6.5 Z"
       id="path847" />
  </g>
</svg>
